<svg xmlns="http://www.w3.org/2000/svg"
     viewBox="0 0 64 64" width="64" height="64">
    <rect width="64" height="64" rx="14" fill="#1A73E8"/>
    <!-- TL corner -->
    <rect x="10" y="10" width="16" height="16"
          rx="2" fill="white"/>
    <rect x="13" y="13" width="10" height="10"
          rx="1" fill="#1A73E8"/>
    <rect x="15" y="15" width="6" height="6"
          fill="white"/>
    <!-- TR corner -->
    <rect x="38" y="10" width="16" height="16"
          rx="2" fill="white"/>
    <rect x="41" y="13" width="10" height="10"
          rx="1" fill="#1A73E8"/>
    <rect x="43" y="15" width="6" height="6"
          fill="white"/>
    <!-- BL corner -->
    <rect x="10" y="38" width="16" height="16"
          rx="2" fill="white"/>
    <rect x="13" y="41" width="10" height="10"
          rx="1" fill="#1A73E8"/>
    <rect x="15" y="43" width="6" height="6"
          fill="white"/>
    <!-- Data dots -->
    <rect x="38" y="38" width="5" height="5" fill="white"/>
    <rect x="45" y="38" width="5" height="5" fill="white"/>
    <rect x="38" y="45" width="5" height="5" fill="white"/>
    <rect x="51" y="45" width="5" height="5" fill="white"/>
    <rect x="45" y="51" width="5" height="5" fill="white"/>
    <!-- Scan line -->
    <rect x="8" y="30" width="48" height="3"
          rx="1.5" fill="#00C853" opacity="0.9"/>
</svg>